:SAMPLES-PER-SECOND 30
:FULLY-SPECIFIED
:DEGREES
270
root  68.2827 40.3933 -35.2858 -2.08286 1.32979 2.01836
RightUpLeg  2.62258 -8.21766 -6.10875
RightLeg  8.32776 -3.25618 1.86352
RightFoot  -7.21908 0.0120241 -1.7009
RightToes  0.00048216 0.542163 -0.142577
Spine  5.746 -0.938657 0.608839
Spine1  8.34042 -0.880165 0.046875
HEad  19.6314 4.63971 -2.79397
LeftShoulder1  8.41631 -12.2657 -46.5575
LeftArm  -3.75611 18.2491 -25.6522
LeftForeArm  20.7108 -26.7426 -4.63862
LeftHand  -0.25398 0.0180481 5.50724
RightShoulder  5.44186 9.21225 36.7926
RightArm  -0.90934 -9.07028 35.4113
RightForeArm  1.57176 19.7458 5.19814
RightHand  -0.56137 0.0434746 -12.0232
LeftUpLeg  3.32118 3.25191 -0.94228
LeftLeg  3.27325 16.587 -3.21936
LeftFoot  -4.50235 -0.0917848 1.9913
LeftToes  1.06244e-005 4.65854e-005 -8.18505e-006
271
root  68.3549 40.3741 -35.29 -2.2464 1.34676 1.86794
RightUpLeg  2.78003 -8.39037 -6.17696
RightLeg  8.45148 -3.12676 1.99572
RightFoot  -7.37085 0.00769015 -1.71202
RightToes  0.00048216 0.542163 -0.142577
Spine  5.53257 -0.858962 0.428154
Spine1  8.42386 -0.850677 0.234748
HEad  20.3057 4.30415 -2.71924
LeftShoulder1  8.45995 -12.3448 -46.5656
LeftArm  -5.42255 18.0587 -25.1125
LeftForeArm  20.6122 -28.9618 -5.14603
LeftHand  -0.25398 0.0180481 5.50724
RightShoulder  5.35365 9.14675 36.3304
RightArm  0.47513 -8.23011 35.6195
RightForeArm  3.18131 20.5986 4.95964
RightHand  -0.599161 0.413652 -12.0315
LeftUpLeg  3.20922 3.31233 -0.941346
LeftLeg  3.92991 16.5476 -2.91925
LeftFoot  -5.11317 -0.0757012 1.95704
LeftToes  1.06244e-005 4.65854e-005 -8.18505e-006
272
root  68.4416 40.3429 -35.2913 -2.2802 1.36276 1.90985
RightUpLeg  2.62245 -8.81796 -6.49055
RightLeg  8.96706 -2.74321 2.11279
RightFoot  -7.73525 -0.000120518 -1.6521
RightToes  0.00048216 0.542163 -0.142577
Spine  5.32367 -0.755048 -0.0373024
Spine1  8.55988 -0.842237 0.584026
HEad  20.9729 3.99178 -2.75037
LeftShoulder1  8.51807 -12.3993 -46.7295
LeftArm  -7.81171 17.7517 -24.7668
LeftForeArm  21.909 -30.8766 -5.52499
LeftHand  -0.25398 0.0180481 5.50724
RightShoulder  5.28051 9.13785 35.7946
RightArm  1.30535 -7.64374 35.9978
RightForeArm  2.12836 21.4793 4.89684
RightHand  -0.705116 0.929013 -13.0549
LeftUpLeg  2.87925 3.4051 -1.16733
LeftLeg  4.7618 16.479 -2.58869
LeftFoot  -5.77652 -0.0481586 1.7046
LeftToes  1.06244e-005 4.65854e-005 -8.18505e-006
273
root  68.5447 40.3025 -35.2626 -2.47772 1.50032 1.97719
RightUpLeg  2.58925 -9.27795 -6.84657
RightLeg  9.67761 -2.30296 2.0678
RightFoot  -8.21067 -0.0201115 -1.29633
RightToes  0.00048216 0.542163 -0.142577
Spine  5.33491 -0.707645 -0.324227
Spine1  8.76573 -0.817656 0.657879
HEad  21.5438 3.58816 -2.66152
LeftShoulder1  8.53586 -12.3936 -46.8463
LeftArm  -8.67551 17.0903 -24.2916
LeftForeArm  22.8206 -32.1796 -5.79044
LeftHand  -0.25398 0.0180481 5.50724
RightShoulder  5.2431 9.10902 35.5977
RightArm  1.5346 -7.28339 36.1732
RightForeArm  0.387049 22.4099 4.93299
RightHand  -0.775636 1.19014 -13.8042
LeftUpLeg  2.79385 3.51381 -1.47329
LeftLeg  5.59348 16.2799 -2.17647
LeftFoot  -6.51091 -0.015585 1.29806
LeftToes  1.06244e-005 4.65854e-005 -8.18505e-006
274
root  68.6252 40.2476 -35.2036 -2.86111 1.69058 1.99959
RightUpLeg  2.61236 -9.64571 -6.97939
RightLeg  10.7419 -1.97402 1.64618
RightFoot  -8.78274 -0.0417559 -0.798187
RightToes  0.00048216 0.542163 -0.142577
Spine  5.58275 -0.655749 -0.477731
Spine1  8.99676 -0.7154 0.401556
HEad  22.1238 3.04816 -2.34765
LeftShoulder1  8.50909 -12.4035 -46.6662
LeftArm  -8.70817 16.2641 -23.9529
LeftForeArm  23.3203 -32.6423 -5.87696
LeftHand  -0.25398 0.0180481 5.50724
RightShoulder  5.23096 9.04144 35.7223
RightArm  1.37953 -7.06964 36.215
RightForeArm  -0.492691 23.1483 5.00856
RightHand  -0.79952 1.32613 -13.945
LeftUpLeg  2.91695 3.76108 -1.65989
LeftLeg  6.53955 15.8216 -1.75242
LeftFoot  -7.38374 0.0111701 0.964128
LeftToes  1.06244e-005 4.65854e-005 -8.18505e-006
275
root  68.6727 40.155 -35.1509 -3.2744 1.62906 2.14348
RightUpLeg  2.0992 -10.1334 -6.97325
RightLeg  12.7969 -1.32248 0.806624
RightFoot  -9.64695 -0.0609531 -0.278953
RightToes  0.00048216 0.542163 -0.142577
Spine  6.10764 -0.477347 -0.845539
Spine1  9.18165 -0.481774 0.0207657
HEad  22.6596 2.56701 -2.02253
LeftShoulder1  8.47513 -12.4554 -46.3201
LeftArm  -9.33158 15.4687 -23.9824
LeftForeArm  24.0923 -32.3994 -5.77233
LeftHand  -0.25398 0.0180481 5.50724
RightShoulder  5.23645 9.00244 35.8922
RightArm  1.30911 -6.76384 36.3452
RightForeArm  -0.716871 23.4316 5.05624
RightHand  -0.837619 1.57703 -14.0966
LeftUpLeg  2.87636 4.2638 -1.83126
LeftLeg  7.90597 15.3386 -1.34065
LeftFoot  -8.47152 0.0322141 0.747006
LeftToes  1.06244e-005 4.65854e-005 -8.18505e-006
276
root  68.7324 40.0113 -35.1339 -3.64445 1.08261 2.55667
RightUpLeg  0.499934 -10.0769 -7.13978
RightLeg  16.467 -0.595109 -0.129494
RightFoot  -10.7087 -0.0753367 0.748327
RightToes  0.00048216 0.542163 -0.142577
Spine  7.12108 -0.144328 -1.44384
Spine1  9.12984 -0.106232 -0.434419
HEad  22.9582 2.53552 -1.907
LeftShoulder1  8.48775 -12.5207 -46.1969
LeftArm  -9.24702 14.6925 -23.841
LeftForeArm  24.0835 -31.7404 -5.61136
LeftHand  -0.25398 0.0180481 5.50724
RightShoulder  5.27545 9.05355 36.0292
RightArm  1.48377 -6.2243 36.4938
RightForeArm  -0.715937 23.2504 5.03301
RightHand  -0.878262 1.77529 -14.3809
LeftUpLeg  2.61534 4.88134 -2.24015
LeftLeg  9.57011 15.3493 -0.942319
LeftFoot  -9.74584 0.0509161 0.538075
LeftToes  1.06244e-005 4.65854e-005 -8.18505e-006
277
root  68.8253 39.8372 -35.1444 -4.0247 -0.0473785 3.20477
RightUpLeg  -2.39068 -7.969 -7.64411
RightLeg  22.0915 -1.23583 -0.810897
RightFoot  -11.0163 -0.0842688 2.70692
RightToes  0.00048216 0.542163 -0.142577
Spine  8.69444 0.336463 -2.15385
Spine1  8.78488 0.408353 -0.978563
HEad  22.9224 2.96691 -1.93124
LeftShoulder1  8.58193 -12.6033 -46.4779
LeftArm  -8.30706 13.7042 -23.3903
LeftForeArm  23.2101 -30.2936 -5.31366
LeftHand  -0.25398 0.0180481 5.50724
RightShoulder  5.37336 9.20189 36.3021
RightArm  1.90321 -5.35406 36.4223
RightForeArm  -0.412763 22.6181 4.97763
RightHand  -0.885778 1.83466 -14.3882
LeftUpLeg  2.39355 5.50144 -2.87603
LeftLeg  11.12 16.0388 -0.657001
LeftFoot  -10.988 0.0658602 0.318923
LeftToes  1.06244e-005 4.65854e-005 -8.18505e-006
278
root  68.9153 39.6654 -35.1514 -4.44191 -1.72701 3.89157
RightUpLeg  -6.33934 -5.52219 -8.27441
RightLeg  29.2214 -2.17067 -1.54871
RightFoot  -9.39481 -0.150651 4.91317
RightToes  0.00048216 0.542163 -0.142577
Spine  10.4817 0.930155 -2.89205
Spine1  8.54286 1.03325 -1.61574
HEad  22.5823 3.12472 -1.93742
LeftShoulder1  8.76047 -12.7483 -47.0352
LeftArm  -6.96244 12.5292 -22.6902
LeftForeArm  21.6533 -28.1364 -4.89709
LeftHand  -0.25398 0.0180481 5.50724
RightShoulder  5.50788 9.38609 36.7299
RightArm  2.51344 -3.84957 36.2278
RightForeArm  0.370171 21.3018 5.04077
RightHand  -0.904618 2.0737 -14.242
LeftUpLeg  2.25526 6.21458 -3.48132
LeftLeg  12.5603 17.1051 -0.423933
LeftFoot  -12.007 0.0786186 0.150488
LeftToes  1.06244e-005 4.65854e-005 -8.18505e-006
279
root  68.988 39.534 -35.1443 -4.91658 -3.26797 4.39751
RightUpLeg  -10.3956 -4.5558 -8.70967
RightLeg  36.054 -2.67328 -2.33916
RightFoot  -6.15388 -0.317284 6.13564
RightToes  0.00048216 0.542163 -0.142577
Spine  12.5099 1.30626 -3.44016
Spine1  8.49956 1.45522 -2.26664
HEad  21.9397 3.46945 -1.98751
LeftShoulder1  9.0204 -13.0017 -47.7001
LeftArm  -4.92791 11.1316 -21.8009
LeftForeArm  19.1482 -25.3058 -4.39289
LeftHand  -0.25398 0.0180481 5.50724
RightShoulder  5.62018 9.524 37.1276
RightArm  2.59049 -1.58532 36.2404
RightForeArm  2.0325 19.1103 5.48944
RightHand  -0.97478 2.54246 -14.4577
LeftUpLeg  2.22134 6.89008 -3.98144
LeftLeg  13.821 17.9547 0.0160131
LeftFoot  -12.629 0.0837074 0.104163
LeftToes  1.06244e-005 4.65854e-005 -8.18505e-006
